<svg version="1.0" xmlns="http://www.w3.org/2000/svg"
 width="500.000000pt" height="500.000000pt" viewBox="0 0 500.000000 500.000000"
 preserveAspectRatio="xMidYMid meet">

<g transform="translate(0.000000,500.000000) scale(0.100000,-0.100000)"
fill="#000000" stroke="none">
<path d="M0 2500 l0 -2500 2500 0 2500 0 0 2500 0 2500 -2500 0 -2500 0 0
-2500z m2508 1225 c1 -1 -167 -205 -373 -454 l-377 -451 260 -322 c142 -178
332 -413 420 -524 89 -111 162 -204 162 -208 0 -3 -85 -6 -188 -6 l-188 0
-319 420 c-176 230 -322 419 -325 420 -3 0 -126 -144 -273 -320 l-267 -319 0
-101 0 -100 -140 0 -140 0 0 985 0 985 140 0 140 0 2 -660 3 -661 545 665 545
665 185 -6 c102 -3 186 -7 188 -8z m1497 -892 c175 -489 333 -930 351 -980
l34 -93 -154 0 -154 0 -69 208 -70 207 -443 0 -444 0 -71 -205 -70 -205 -152
-3 c-84 -1 -153 -1 -153 1 0 11 692 1933 698 1939 7 7 92 12 283 16 l96 2 318
-887z" fill="#ffffff"/>
<path d="M3325 2973 c-93 -274 -170 -504 -173 -510 -3 -10 69 -13 342 -13 190
0 346 3 346 7 0 17 -335 1013 -341 1013 -3 0 -82 -224 -174 -497z" fill="#ffffff"/>
</g>
</svg>
